<svg version="1.0" xmlns="http://www.w3.org/2000/svg" width="1365.333" height="1365.333" viewBox="0 0 1024 1024"><path d="M292 .6C203.7 2.8 163.8 9.4 126.3 28 82.9 49.5 49.5 82.9 28 126.3 11.9 158.7 5.2 191.9 1.8 255c-1.9 33.9-1.8 481.6 0 514.5C4.6 820 9 848.9 18.1 876.3c2.6 8.1 12.7 28.9 18.5 38.6 11.7 19.3 32.1 42.5 49.9 56.7 22.1 17.6 49.5 31.7 74.7 38.3 30.3 8 56.2 11.1 109.8 13.1 34.9 1.3 447.1 1.3 482 0 53.6-2 79.5-5.1 109.8-13.1 25.2-6.6 52.6-20.7 74.7-38.3 17.8-14.2 38.2-37.4 49.9-56.7 5.8-9.7 15.9-30.5 18.5-38.6 9.1-27.4 13.5-56.3 16.3-106.8 1.9-33.2 1.9-479.4 0-514.5-3.3-62.7-10.1-96.3-26.2-128.7-21.5-43.4-54.9-76.8-98.3-98.3-31.6-15.7-64.6-22.6-125.2-26.1C755.6.8 327.7-.2 292 .6zm290.5 149.3c32.1 3.8 47.6 6 56.9 8.1 2.3.5 8.6 1.9 14.1 3.1 45.3 9.8 90.1 28.7 117.8 49.7 38.1 28.9 64.6 77.9 77.5 143.2 3.4 17.3 5 28.4 7.2 50.8 2 19.1 2.1 25.6 1.7 65-.4 43.1-.9 51.8-5.3 90.7-5.6 50.4-18.4 89.3-40.4 122.2-27.3 41.1-66.7 68.4-120 83.2-28.9 8-37.8 10.1-54.5 13-55.2 9.5-100.8 12.3-162.5 9.8l-20.5-.9-15.6 17.9c-22.3 25.5-49.5 55.2-54.3 59.4-6.1 5.4-11.4 8.4-17.9 10.3-5.5 1.6-6 1.6-12.7-.4-7.9-2.3-12.5-6.1-15.9-12.9-4.5-8.8-5.1-15-5.1-57.1l-.1-39.5-13.3-4.4c-22.2-7.2-44.7-19-63.1-32.9-8.8-6.7-26.8-24.5-34-33.7-30.4-38.8-47.1-86.7-54.2-155-1.9-18.1-2.2-109.7-.5-131.5 3.4-42.5 12.6-85.9 23.7-112.5 12.4-29.8 27-52.6 45.6-71.4 26.8-27 77.4-51.1 132.4-63.1 5.5-1.1 11.8-2.5 14.1-3 12.8-2.9 47.6-7.5 71.4-9.4 9.9-.8 119.1.3 127.5 1.3z"/><path d="M472 199.6c-.8.2-8.2.8-16.5 1.4-16.1 1.1-16.4 1.1-33 3.4-11.5 1.6-22.2 3.5-34 6.1-3.8.9-7.9 1.7-9 2-4.3.8-11.1 2.7-13 3.5-1.1.5-5.4 1.9-9.5 3.1-15.1 4.5-42.3 16.4-50.2 22-1.4 1.1-2.8 1.9-3.1 1.9-.3 0-2.9 1.6-5.8 3.6-23.1 15.5-41.8 38.9-54.9 68.9-1.2 2.7-2.7 6.3-3.5 8-.7 1.6-1.6 4.1-2 5.5-.3 1.4-1 3.4-1.5 4.5-1.5 3.6-4 12.2-5.6 19.7-4 17.8-4.6 20.9-5.9 30.3-2.1 15-3.4 28.5-4.3 43.5-.9 14.7-.8 93.6.1 98.5.3 1.6.8 6.6 1.2 11 1.6 20.3 8.6 53.2 14.4 68 .5 1.1 1.9 4.7 3.1 8 12.4 32.5 35.7 62.1 63.2 80.1 8.7 5.7 27.9 15.9 33.4 17.7 1 .4 6.4 2.2 11.9 4l10 3.4.3 65.9c.1 36.2.6 66.2 1 66.6.8.8 15.8-14.8 49.2-51.2 5.8-6.3 16.8-18.1 24.5-26.3 7.7-8.2 15.8-17 18-19.6 2.1-2.5 6.5-7.3 9.7-10.6l5.7-6 38.3-.1c37.2-.1 48-.7 77.3-4 35.4-3.9 58.1-8.4 99.5-19.8 17.8-4.9 42.1-17.3 55-28 12.9-10.7 24.3-23.1 32.4-35.4 6-9 14.6-25.3 16.1-30.5.4-1.2 1.3-3.6 2-5.2 4.7-11 9-27.4 11.6-44 .5-3.3 1.4-8.5 1.9-11.5.8-4.9 2.4-20 3.5-33 .2-2.5.6-7.1 1-10.3.4-3.1 1-19.4 1.3-36.1 1.2-55.3-2.5-94-13-133.6-2.1-8-7.2-23.5-9.3-28.5-10.1-23.4-20.1-39.6-33-53.4-10-10.7-27.9-22.4-46.5-30.4-3.5-1.5-11.6-5-15.5-6.7-7-2.9-39.4-12.6-45.5-13.6-.8-.1-5.1-1-9.5-1.9-22.9-4.9-42.8-7.5-72.5-9.5-15-1-85.4-2.1-89-1.4zm65.8 97.4c15.3 2.5 26.2 5.4 35.9 9.6 1.7.8 3.5 1.4 4 1.4 1.8 0 21.8 10.7 28.4 15.2 20.9 14.4 38.4 32.3 49.1 50.3 7.2 12.1 14.5 28.3 17.5 39 2.1 7.4 4.5 16.7 4.8 19 3.1 19.4 3.1 18.8 4.1 35.2l.7 12.3-3.7 3.5c-4.7 4.4-8.3 4.6-12.8.6l-3.2-2.9-.8-13.3c-2-37.8-10.2-64-28.2-90.6-5.1-7.5-25.4-27.8-32.9-32.9-21.9-14.8-41.4-23-62.2-26.4-10.3-1.7-12-1.9-23.8-2.6-9.5-.6-11.3-1-13.7-3.1-4.8-4-4.8-9.2-.2-14.6 2.2-2.5 20.3-2.3 37 .3zm-146.3 3.7c2.8.9 6.8 2.8 9.1 4.4 10.1 6.9 36.3 39.2 49.1 60.4 7.2 12.1 9.9 18.3 10.8 25.1 1.1 8.8-.6 12.9-9.3 21.4-4.3 4.2-9 8.5-10.7 9.5-1.6 1.1-5.3 4.2-8.1 7-8.1 7.8-9.3 15.6-4.9 31.1 3.7 13 9.4 23.7 22.1 41.4 5 6.9 22 23.5 33.3 32.4 10.6 8.3 26.2 17.7 35.6 21.2 11.4 4.3 13.5 4.8 19.5 4.8 10 0 12-1.6 28.5-22.4 5.4-6.8 10.5-10 18.2-11.3 10.8-1.9 17-.2 31.2 8.4 6.7 4.1 13 7.8 13.9 8.4 7.1 4 41.4 30.8 48 37.4 9.3 9.4 9.6 22.6.9 37.5-4.2 7.3-14.7 20.3-21.9 27.2-15.5 14.9-28.1 20.4-43.7 19.1-5.9-.5-11.7-2.3-21.6-6.7-1.1-.5-3.6-1.5-5.5-2.4-15.9-6.7-27.2-12.3-43.5-21.1-16.4-8.9-17.7-9.7-35.5-21.4-52.6-34.5-98.7-81-136-137.1-24.6-36.9-49.7-91.7-51.6-112.6-1-11.1 3.1-21.7 12.1-31 3.1-3.2 16.4-14 22.5-18.3 19.2-13.7 26-15.9 37.5-12.4zM538.6 340c6.9 1.1 13.4 2.5 14.4 3 1 .6 2.7 1 3.7 1s3.1.7 4.7 1.5c1.5.8 3.3 1.5 3.8 1.5 2.1 0 16.4 7.3 23.2 11.8 3.9 2.5 11.2 8.7 16.1 13.7 18.3 18.2 28.3 38.6 31.8 64.5 2.6 19.6 1.9 26.3-3.2 29.9-3.8 2.8-6.7 2.6-10.7-.4-3.7-2.9-4.1-4.2-4.8-18.5-.5-9.7-2-20-3.5-23.5-.5-1.1-1.9-4.7-3.1-8-4.4-11.2-12.8-23.3-22.6-32.5-9-8.4-16.5-13-30.9-19-5.6-2.3-20.8-6-26.5-6.5-12.6-1-17.3-3.2-18.3-8.5-1.3-6.3 3.2-12 9.5-12 2.1 0 9.5.9 16.4 2zm6.4 44.1c13.4 2.1 25.1 7.7 32.7 15.5 4.5 4.6 10.9 14.9 11.9 19.2.4 1.5 1 3.1 1.4 3.7.4.5 1.6 5.9 2.6 11.8 1.8 10.4 1.8 10.9 0 14.1-3 5.7-10.1 7.4-14.9 3.6-2.4-1.9-3.4-4.9-4.2-13.2-1.3-14.3-8.8-26.6-19-31.1-2.2-1-4.7-2.2-5.6-2.7-.9-.5-4.5-1.2-8-1.5-10.1-1-14.6-3-15.9-7.1-1.9-5.6.2-10.9 5-12.7 2.4-.9 7-.8 14 .4z"/></svg>